# xmcd
#
# Track frame offsets:
#	150
#	64778
#	87545
#	145939
#
# Disc length: 2215 seconds
#
# Revision: 1
# Processed by: cddbd v1.5.2PL0 Copyright (c) Steve Scherf et al.
# Submitted via: audiograbber 1.83.01
#
DISCID=3508a504
DTITLE=Grateful Dead - 95-04-05A BJCC Coliseum, Birmingham AL
DYEAR=1900
DGENRE=
TTITLE0=Space
TTITLE1=I Need A Miracle
TTITLE2=Morning Dew
TTITLE3=Johnny B Goode
EXTD=
EXTT0=
EXTT1=
EXTT2=
EXTT3=
PLAYORDER=
